<?xml version="1.0" encoding="UTF-8"?>
<svg version="1.1" xmlns="http://www.w3.org/2000/svg" width="978" height="255">
<path d="M0 0 C7.50322496 -0.05134012 15.00640349 -0.08599763 22.50976562 -0.10986328 C25.0543792 -0.11982829 27.5989816 -0.13340516 30.14355469 -0.15087891 C76.32480006 -0.4597228 76.32480006 -0.4597228 86.875 9.25 C87.95458343 10.46740259 88.99883079 11.71733494 90 13 C90.65162109 13.82564453 90.65162109 13.82564453 91.31640625 14.66796875 C94.19104693 19.20529359 94.37593858 23.86598164 94.4375 29.125 C94.44773193 29.80618896 94.45796387 30.48737793 94.46850586 31.18920898 C94.35691078 37.60163381 91.94296903 42.61857983 87.8046875 47.4765625 C83.78649866 50.8685401 78.76362212 52.85750967 74 55 C77.00100532 60.50184308 80.41671227 65.51562416 84.125 70.5625 C85.28167036 72.14813095 86.4379152 73.73407238 87.59375 75.3203125 C88.16609375 76.10438477 88.7384375 76.88845703 89.328125 77.69628906 C90.88940744 79.84761223 92.43372002 82.00958058 93.96875 84.1796875 C94.41976074 84.81704834 94.87077148 85.45440918 95.33544922 86.11108398 C96.17250355 87.29662042 97.00758372 88.48355411 97.84033203 89.67211914 C101.56126568 94.92891732 103.73559338 97.19028253 110 99 C110 100.32 110 101.64 110 103 C105.42879047 103.22372271 100.86080841 103.38632695 96.28540039 103.49438477 C94.73210116 103.53944773 93.1791796 103.60072454 91.62719727 103.67895508 C78.82713112 104.30765817 78.82713112 104.30765817 74.61450195 101.29272461 C72.77863254 98.95990126 71.39870671 96.61585649 70 94 C68.90979011 92.42369263 67.80147036 90.85976317 66.67578125 89.30859375 C65.55349633 87.68571893 64.43243381 86.06199819 63.3125 84.4375 C58.71332404 77.84175371 54.10918018 71.24976922 49.375 64.75 C48.89071533 64.06478271 48.40643066 63.37956543 47.9074707 62.67358398 C46.41114449 60.58014439 46.41114449 60.58014439 44 58 C42.68 58 41.36 58 40 58 C39.95033811 62.44741318 39.91415707 66.8946768 39.89013672 71.34228516 C39.88011661 72.85338149 39.86649679 74.36445862 39.84912109 75.87548828 C39.82469608 78.05506142 39.81347693 80.23437684 39.8046875 82.4140625 C39.79421387 83.7232666 39.78374023 85.0324707 39.77294922 86.38134766 C39.99992753 89.99884503 40.48525941 92.70952686 42 96 C45.36615515 97.34274872 45.36615515 97.34274872 49 98 C50.35350594 98.62469505 51.69934483 99.2716331 53 100 C53 100.99 53 101.98 53 103 C35.34111001 104.87291257 17.6946728 103.79583696 0 103 C0.33 101.35 0.66 99.7 1 98 C1.62648437 97.97421875 2.25296875 97.9484375 2.8984375 97.921875 C3.71570313 97.86515625 4.53296875 97.8084375 5.375 97.75 C6.18710938 97.70359375 6.99921875 97.6571875 7.8359375 97.609375 C10.07975956 97.21611061 10.07975956 97.21611061 11.12106323 95.48370361 C12.38923991 91.90008405 12.26122216 88.40461974 12.22705078 84.65136719 C12.22734283 83.81197601 12.22763489 82.97258484 12.22793579 82.10775757 C12.22654409 79.33735769 12.21099039 76.56722781 12.1953125 73.796875 C12.1915818 71.87445218 12.1887351 69.95202745 12.18673706 68.02960205 C12.17910508 62.97268412 12.15946027 57.91588128 12.1373291 52.85900879 C12.11686134 47.69768836 12.10773335 42.53634932 12.09765625 37.375 C12.07621401 27.24994946 12.04208326 17.12498431 12 7 C6.06 6.01 6.06 6.01 0 5 C0 3.35 0 1.7 0 0 Z M39 7 C38.97535426 12.96313166 38.957166 18.92623395 38.94506836 24.8894043 C38.94002722 26.91968298 38.93319443 28.94995802 38.92456055 30.98022461 C38.91248533 33.89177347 38.90676966 36.8032745 38.90234375 39.71484375 C38.89718246 40.6283812 38.89202118 41.54191864 38.88670349 42.48313904 C38.88650832 44.65575427 38.93788195 46.82827296 39 49 C40.82831657 50.82831657 43.60370688 50.21612455 46.0625 50.25 C53.29186473 50.17873573 58.06115789 49.29996339 63.875 44.75 C68.80161098 38.3743858 68.6588143 30.74106801 68 23 C66.83253828 17.45455681 64.42396516 13.58130513 60 10 C54.76501398 7.2447442 49.08953392 6.944563 43.265625 6.9765625 C42.46415039 6.97994629 41.66267578 6.98333008 40.83691406 6.98681641 C39.9276416 6.99334229 39.9276416 6.99334229 39 7 Z " fill="#FBFCFC" transform="translate(0,83)"/>
<path d="M0 0 C10.56 0 21.12 0 32 0 C33.60744571 3.21489143 33.17122263 6.72440602 33.18945312 10.25756836 C33.20189308 11.53824944 33.20189308 11.53824944 33.21458435 12.84480286 C33.23200466 14.70218474 33.24716603 16.55958883 33.26036072 18.41700554 C33.28135318 21.3542803 33.30837916 24.29144363 33.33703613 27.22865295 C33.396791 33.4648927 33.44891502 39.70118401 33.5 45.9375 C33.5591898 53.1587945 33.62147051 60.38003414 33.69187927 67.60122871 C33.71848917 70.49894078 33.73928347 73.39665823 33.7598877 76.29441833 C33.77648955 78.06729395 33.79336129 79.84016706 33.81054688 81.61303711 C33.81473129 82.42197418 33.81891571 83.23091125 33.82322693 84.06436157 C33.85959044 87.29676386 33.97061767 89.911853 35 93 C38.00007271 94.70855022 38.00007271 94.70855022 41 96 C40.505 97.98 40.505 97.98 40 100 C35.93910105 100.84126612 31.87604526 101.67161887 27.8125 102.5 C26.08676758 102.85771484 26.08676758 102.85771484 24.32617188 103.22265625 C23.21435547 103.44824219 22.10253906 103.67382812 20.95703125 103.90625 C19.93585205 104.11572266 18.91467285 104.32519531 17.86254883 104.54101562 C15.18075268 104.97101791 12.70948135 105.08705161 10 105 C9.505 101.04 9.505 101.04 9 97 C8.18595703 97.74056641 8.18595703 97.74056641 7.35546875 98.49609375 C6.64003906 99.13675781 5.92460937 99.77742188 5.1875 100.4375 C4.47980469 101.07558594 3.77210938 101.71367187 3.04296875 102.37109375 C-2.0006128 106.39245801 -8.89304955 105.50710146 -15 105 C-21.20511104 103.31415968 -26.17557673 99.07131553 -30 94 C-37.0915767 81.22783214 -38.33959499 65.98257418 -34.4375 51.875 C-31.15557259 42.73913824 -25.33310666 36.11097889 -17 31.25 C-11.62373108 29.15337225 -5.60886849 28.91500577 0 30 C3.46762298 31.80260084 6.74280692 33.84333658 10 36 C9.8613598 31.7289011 9.71286099 27.45820108 9.5625 23.1875 C9.52318359 21.97255859 9.48386719 20.75761719 9.44335938 19.50585938 C9.40146484 18.34248047 9.35957031 17.17910156 9.31640625 15.98046875 C9.26141968 14.37014771 9.26141968 14.37014771 9.20532227 12.72729492 C9.10458153 9.90688447 9.10458153 9.90688447 8 7 C6.1346755 5.98245132 6.1346755 5.98245132 3.9375 5.3125 C3.20402344 5.06113281 2.47054687 4.80976562 1.71484375 4.55078125 C1.14894531 4.36902344 0.58304688 4.18726562 0 4 C0 2.68 0 1.36 0 0 Z M-8.3125 40.625 C-15.53398598 50.78857287 -13.90796524 68.71692316 -12.3125 80.5625 C-11.30144201 85.69556365 -9.73955391 90.21935209 -6 94 C-2.45703392 95.40242407 -0.93785585 95.38886706 2.5625 93.9375 C6.02756744 91.18321562 9.40348032 88.4730985 10.47174072 84.04421997 C10.65896277 81.79778369 10.69337539 79.60170093 10.6640625 77.34765625 C10.66884613 76.52929794 10.67362976 75.71093964 10.67855835 74.86778259 C10.68194741 73.14401315 10.67281458 71.42017856 10.65185547 69.6965332 C10.6251061 67.07290694 10.65161493 64.45357123 10.68359375 61.83007812 C10.6802888 60.14842815 10.67388079 58.46678082 10.6640625 56.78515625 C10.67924423 55.62077782 10.67924423 55.62077782 10.69473267 54.43287659 C10.56825325 48.48725322 8.83890023 45.53208553 5 41 C1.036275 37.96114417 -4.22427626 37.75219413 -8.3125 40.625 Z " fill="#FBFCFC" transform="translate(228,83)"/>
<path d="M0 0 C5.73185101 6.3099916 5.85924041 12.97593359 5.95703125 21.046875 C5.9763974 22.03720734 5.99576355 23.02753967 6.01571655 24.04788208 C6.07526428 27.1958976 6.12179845 30.34395018 6.16796875 33.4921875 C6.20617135 35.63282802 6.2452244 37.77345354 6.28515625 39.9140625 C6.38094527 45.1483039 6.4660647 50.3826364 6.54296875 55.6171875 C10.00796875 55.1221875 10.00796875 55.1221875 13.54296875 54.6171875 C13.54296875 58.93472246 12.84709098 60.10725497 10.015625 63.22265625 C6.22971224 66.80772483 2.62938312 67.80916809 -2.45703125 67.9921875 C-6.79017565 67.84883535 -9.81164997 67.10671618 -13.45703125 64.6171875 C-16.45703125 61.3171875 -16.45703125 61.3171875 -16.45703125 58.6171875 C-17.01390625 58.93171875 -17.57078125 59.24625 -18.14453125 59.5703125 C-19.74531146 60.46804735 -21.35115386 61.35679286 -22.9609375 62.23828125 C-24.48346541 63.07936475 -25.99488138 63.94155569 -27.484375 64.83984375 C-32.7632256 67.8517033 -37.43548912 68.44565471 -43.45703125 67.6171875 C-48.14761547 65.96679676 -50.93082418 63.92109584 -53.45703125 59.6171875 C-54.93836685 54.3107593 -54.83352612 49.55307742 -52.56640625 44.51171875 C-45.84949145 33.04093116 -30.21790754 26.48291386 -18.45703125 21.6171875 C-18.43004703 19.17961337 -18.41020026 16.74233835 -18.39453125 14.3046875 C-18.38196289 13.26924805 -18.38196289 13.26924805 -18.36914062 12.21289062 C-18.35395219 9.068885 -18.45509798 6.62298731 -19.45703125 3.6171875 C-22.50120133 1.52937174 -24.6185508 1.46446979 -28.20703125 1.9921875 C-29.00625 2.10304688 -29.80546875 2.21390625 -30.62890625 2.328125 C-31.2321875 2.42351562 -31.83546875 2.51890625 -32.45703125 2.6171875 C-33.24373676 4.87479607 -33.24373676 4.87479607 -33.45703125 7.6171875 C-32.46968585 9.29138188 -31.4689102 10.95770602 -30.45703125 12.6171875 C-29.95703125 15.6171875 -29.95703125 15.6171875 -30.45703125 18.6171875 C-32.89453125 21.4296875 -32.89453125 21.4296875 -35.45703125 23.6171875 C-35.78703125 23.9471875 -36.11703125 24.2771875 -36.45703125 24.6171875 C-42.58625727 25.13661343 -45.51625368 24.61686458 -50.45703125 20.6171875 C-52.82863273 18.24558602 -52.77686477 17.61097628 -52.83203125 14.3671875 C-52.6632501 8.1619983 -49.73322562 4.67443856 -45.39453125 0.4921875 C-33.44934393 -9.25324369 -11.63021233 -11.03778865 0 0 Z M-27.45703125 35.6171875 C-31.20506172 39.82229485 -32.12364613 43.11750602 -31.8359375 48.62109375 C-31.57564513 50.77626627 -31.57564513 50.77626627 -29.89453125 52.7421875 C-26.432305 53.98503795 -23.99815811 53.45418112 -20.45703125 52.6171875 C-19.46703125 51.9571875 -18.47703125 51.2971875 -17.45703125 50.6171875 C-17.04093853 48.29418366 -17.04093853 48.29418366 -17.1640625 45.609375 C-17.17373047 44.62324219 -17.18339844 43.63710937 -17.19335938 42.62109375 C-17.21849609 41.58855469 -17.24363281 40.55601562 -17.26953125 39.4921875 C-17.28306641 38.45191406 -17.29660156 37.41164063 -17.31054688 36.33984375 C-17.34597897 33.76511123 -17.39537904 31.1914042 -17.45703125 28.6171875 C-20.77057764 28.6171875 -25.05203143 33.54855129 -27.45703125 35.6171875 Z " fill="#FBFCFC" transform="translate(505.45703125,119.3828125)"/>
<path d="M0 0 C0.7734375 -0.020625 1.546875 -0.04125 2.34375 -0.0625 C9.06037142 -0.107578 14.25909912 1.34669944 20 5 C30.07891803 15.07891803 27.45134452 32.22244661 27.8125 45.625 C27.8558463 47.15104946 27.89946469 48.67709122 27.94335938 50.203125 C28.04869587 53.88533358 28.15039862 57.56763128 28.25 61.25 C30.23 61.25 32.21 61.25 34.25 61.25 C34.58 62.24 34.91 63.23 35.25 64.25 C32.73140395 69.18225061 29.52996117 72.47665441 24.25 74.25 C18.30900291 75.08795363 13.27874366 74.75842581 8.25 71.25 C6.41146436 69.33343632 4.85698104 67.37688667 3.25 65.25 C2.58613281 65.73210937 1.92226562 66.21421875 1.23828125 66.7109375 C0.35527344 67.34257812 -0.52773437 67.97421875 -1.4375 68.625 C-2.30761719 69.25148438 -3.17773438 69.87796875 -4.07421875 70.5234375 C-9.91896328 74.29479091 -14.91217854 74.95244073 -21.75 74.25 C-27.11787898 72.36130184 -30.20991584 69.33016831 -32.75 64.25 C-33.29926877 57.87848221 -32.49985013 53.49979018 -28.75 48.25 C-22.0091703 40.49110448 -12.7247564 35.93837659 -3.75 31.25 C-2.64011719 30.66863281 -1.53023437 30.08726562 -0.38671875 29.48828125 C2.25 28.25 2.25 28.25 4.25 28.25 C4.10870713 25.83299013 3.96213513 23.41649571 3.8125 21 C3.77318359 20.31808594 3.73386719 19.63617188 3.69335938 18.93359375 C3.48333528 15.60551959 3.23065998 12.44744598 2.25 9.25 C-5.29047904 8.17140138 -5.29047904 8.17140138 -12.75 9.25 C-12.26703515 12.43756801 -11.49771076 14.79339221 -10.125 17.75 C-8.69567848 21.38827296 -8.30420494 22.68370553 -9.75 26.25 C-12.87289419 29.8765868 -14.64520329 31.11892242 -19.4375 31.6875 C-23.90773717 31.6385558 -26.26295386 29.9609675 -29.39453125 26.88671875 C-31.33119981 24.54820541 -31.89591063 23.31412317 -31.75 20.25 C-30.39785983 13.73765143 -27.01038716 9.22810469 -21.75 5.25 C-14.53604885 1.23549093 -8.14055433 0.05320624 0 0 Z M-5.75 42.25 C-9.52290546 46.02290546 -10.65412792 48.88116346 -10.75 54.25 C-9.93792354 57.21493065 -9.93792354 57.21493065 -7.75 59.25 C-3.81645462 60.48833836 -1.77404107 60.75389323 1.95703125 58.91796875 C5.50992607 54.78402128 4.79007176 50.75865822 4.5625 45.5 C4.53994141 44.51644531 4.51738281 43.53289062 4.49414062 42.51953125 C4.43528805 40.0948053 4.35313431 37.67318017 4.25 35.25 C0.98578356 35.25 -3.33104279 40.22925991 -5.75 42.25 Z " fill="#FBFCFC" transform="translate(147.75,112.75)"/>
<path d="M0 0 C0.65484375 0.40734375 1.3096875 0.8146875 1.984375 1.234375 C2.59796875 1.60046875 3.2115625 1.9665625 3.84375 2.34375 C11.53217719 7.85492347 15.76813419 18.47032299 17.421875 27.484375 C18.06532401 32.75086529 18.25577628 37.93767254 17.984375 43.234375 C17.93990234 44.35779297 17.93990234 44.35779297 17.89453125 45.50390625 C17.17699219 55.49695023 12.97341984 64.0954676 5.984375 71.234375 C-2.99434366 78.34563969 -10.905864 79.0216809 -22.015625 78.234375 C-27.95125069 76.62826452 -30.5846623 73.6653377 -35.015625 69.234375 C-35.345625 81.114375 -35.675625 92.994375 -36.015625 105.234375 C-39.645625 105.234375 -43.275625 105.234375 -47.015625 105.234375 C-47.79163688 102.13032746 -48.14099734 100.10277703 -48.14260864 97.01512146 C-48.14542847 96.18095703 -48.14824829 95.3467926 -48.15115356 94.48735046 C-48.14912933 93.58072159 -48.1471051 92.67409271 -48.14501953 91.73999023 C-48.14677185 90.77862152 -48.14852417 89.81725281 -48.15032959 88.82675171 C-48.15473111 85.6488057 -48.1518163 82.47091533 -48.1484375 79.29296875 C-48.14911097 77.086268 -48.15008136 74.87956732 -48.15133667 72.67286682 C-48.15281129 68.04858697 -48.15066641 63.42432643 -48.14599609 58.80004883 C-48.14029562 52.86585422 -48.14358133 46.93170481 -48.14956856 40.99751186 C-48.15317766 36.4414282 -48.15203403 31.8853553 -48.14944077 27.32927132 C-48.14877264 25.14074765 -48.14959595 22.95222302 -48.15192032 20.76370049 C-48.15445288 17.70889563 -48.15059779 14.65416458 -48.14501953 11.59936523 C-48.14704376 10.69071213 -48.14906799 9.78205902 -48.15115356 8.84587097 C-48.14833374 8.01452637 -48.14551392 7.18318176 -48.14260864 6.3266449 C-48.14223162 5.60454551 -48.14185459 4.88244612 -48.14146614 4.13846493 C-48.015625 2.234375 -48.015625 2.234375 -47.015625 -0.765625 C-43.715625 -0.765625 -40.415625 -0.765625 -37.015625 -0.765625 C-36.355625 1.874375 -35.695625 4.514375 -35.015625 7.234375 C-34.43554688 6.68007812 -33.85546875 6.12578125 -33.2578125 5.5546875 C-32.47664062 4.83023438 -31.69546875 4.10578125 -30.890625 3.359375 C-30.12492188 2.64007813 -29.35921875 1.92078125 -28.5703125 1.1796875 C-20.6449646 -4.85521044 -8.59088336 -4.57762398 0 0 Z M-28.828125 11.609375 C-29.55 12.475625 -30.271875 13.341875 -31.015625 14.234375 C-31.758125 15.12125 -32.500625 16.008125 -33.265625 16.921875 C-37.35125786 22.32074699 -36.35402964 28.94833515 -36.4206543 35.47216797 C-36.44215835 37.05312038 -36.47617132 38.63395619 -36.52319336 40.21435547 C-37.09693314 51.93086455 -37.09693314 51.93086455 -31.56298828 61.86328125 C-31.0523584 62.31574219 -30.54172852 62.76820313 -30.015625 63.234375 C-29.17 64.018125 -28.324375 64.801875 -27.453125 65.609375 C-22.11371316 69.16898289 -17.35745106 70.09052152 -11.015625 69.234375 C-5.71703896 67.50860314 -1.99285063 65.01920191 0.984375 60.234375 C6.76824782 48.85320591 8.16536559 35.07490423 4.859375 22.609375 C2.75446843 16.86059716 -0.65136943 12.21523778 -5.328125 8.296875 C-13.68982425 4.99108693 -21.86347044 5.72811115 -28.828125 11.609375 Z " fill="#F9FBFC" transform="translate(623.015625,105.765625)"/>
<path d="M0 0 C0 1.32 0 2.64 0 4 C-1.65 4.66 -3.3 5.32 -5 6 C-4.67961947 14.18520569 -1.2140397 21.13406347 2.0625 28.5 C2.63702226 29.81208244 3.2105985 31.12457955 3.78320312 32.4375 C5.17791727 35.62985886 6.58538521 38.81640098 8 42 C9.76239535 39.35640698 10.79461748 37.19281868 11.91015625 34.25390625 C12.26013672 33.33416016 12.61011719 32.41441406 12.97070312 31.46679688 C13.33099609 30.50837891 13.69128906 29.54996094 14.0625 28.5625 C14.60874023 27.13067383 14.60874023 27.13067383 15.16601562 25.66992188 C18.21520977 17.68006011 18.21520977 17.68006011 19.0625 9.25 C19.05347656 8.45078125 19.04445313 7.6515625 19.03515625 6.828125 C19.02355469 6.22484375 19.01195312 5.6215625 19 5 C17.02 4.67 15.04 4.34 13 4 C13 2.68 13 1.36 13 0 C16.24947861 -0.19738568 19.49958873 -0.3811754 22.75 -0.5625 C23.67039062 -0.61857422 24.59078125 -0.67464844 25.5390625 -0.73242188 C26.42851562 -0.78076172 27.31796875 -0.82910156 28.234375 -0.87890625 C29.05131836 -0.9260376 29.86826172 -0.97316895 30.70996094 -1.02172852 C32.97882075 -1.00020095 34.83320921 -0.64612135 37 0 C37 1.32 37 2.64 37 4 C36.05125 4.226875 35.1025 4.45375 34.125 4.6875 C30.90088958 5.63657981 30.90088958 5.63657981 30.02075195 8.02246094 C29.68390381 9.00504883 29.34705566 9.98763672 29 11 C28.47760228 12.36281426 27.94997183 13.72362796 27.41870117 15.08300781 C26.79319196 16.70627809 26.16796586 18.32965748 25.54296875 19.953125 C24.84156374 21.77306621 24.14006234 23.59297027 23.43847656 25.4128418 C23.07113403 26.3657309 22.7037915 27.31862 22.32531738 28.30038452 C19.25469779 36.26049062 16.17423705 44.21679438 13.09393311 52.17315674 C12.06437953 54.83363623 11.03618023 57.49463508 10.00830078 60.15576172 C8.53333269 63.97231926 7.05149519 67.78613581 5.56387329 71.59777832 C5.02803919 72.97359952 4.49443039 74.3502898 3.96322632 75.72790527 C-5.0203009 99.01015045 -5.0203009 99.01015045 -15 104 C-20.96308973 104.55769904 -25.92876868 104.50156448 -31 101 C-33.63423357 98.71237611 -34.80920073 97.08238464 -35.41796875 93.62890625 C-35.66428676 89.14858136 -35.48528925 86.72058101 -32.9375 82.9375 C-29.358756 80.57705183 -27.29821636 79.84918539 -23 80 C-19.30463676 82.09171504 -17.58236815 83.33091617 -16.18359375 87.33984375 C-15.68244479 89.55821641 -15.28501528 91.74444801 -15 94 C-11.43237596 92.81079199 -10.94756906 91.56759889 -9.296875 88.32617188 C-8.99265625 87.70291016 -8.6884375 87.07964844 -8.375 86.4375 C-8.06304687 85.84130859 -7.75109375 85.24511719 -7.4296875 84.63085938 C-4.6303347 79.00198834 -2.99696571 74.17610158 -4.93994141 68.02368164 C-6.39912704 64.4026515 -7.98750198 60.8549313 -9.625 57.3125 C-10.21569147 55.99825918 -10.80461286 54.68322149 -11.3918457 53.36743164 C-12.61778221 50.62907845 -13.85464512 47.89607778 -15.10107422 45.16699219 C-16.98539214 41.03985333 -18.84175185 36.90058225 -20.69140625 32.7578125 C-22.40873186 28.91262245 -24.12676214 25.06784789 -25.85986328 21.22973633 C-26.63112549 19.520802 -26.63112549 19.520802 -27.41796875 17.77734375 C-28.09508911 16.28062134 -28.09508911 16.28062134 -28.78588867 14.75366211 C-29.58997873 12.92994771 -30.33142363 11.07721421 -31.00512695 9.20141602 C-31.81097796 6.74059086 -31.81097796 6.74059086 -34.5 6 C-37 5 -37 5 -38.15625 2.4375 C-38.4346875 1.633125 -38.713125 0.82875 -39 0 C-34.41039478 -0.16841537 -29.820604 -0.3288849 -25.23046875 -0.48217773 C-23.67082349 -0.53536215 -22.11124911 -0.59067114 -20.55175781 -0.64819336 C-18.3028898 -0.73076674 -16.05387293 -0.80555406 -13.8046875 -0.87890625 C-12.76838699 -0.91945885 -12.76838699 -0.91945885 -11.71115112 -0.96083069 C-7.6735017 -1.0837296 -3.95893641 -0.79986674 0 0 Z " fill="#FBFCFC" transform="translate(406,115)"/>
<path d="M0 0 C5.16684584 4.39930715 8.52465864 9.16667456 9.20549011 16.08944702 C9.30965915 18.53475375 9.35485931 20.97446945 9.37890625 23.421875 C9.39590073 24.32190247 9.4128952 25.22192993 9.43040466 26.14923096 C9.48329512 29.01608321 9.52367102 31.88292569 9.5625 34.75 C9.60674125 37.60271466 9.65377215 40.45532995 9.70530701 43.30792236 C9.73670879 45.07766192 9.76375825 46.84748648 9.78553772 48.61737061 C9.86965603 53.73530569 10.21259445 58.76586004 10.78036499 63.85342407 C11.04627463 66.45225947 11.09980245 69.01382843 11.0625 71.625 C11.05347656 72.46289062 11.04445313 73.30078125 11.03515625 74.1640625 C11.02355469 74.76992187 11.01195312 75.37578125 11 76 C9.54207116 76.05399736 8.08357288 76.09279177 6.625 76.125 C5.81289063 76.14820313 5.00078125 76.17140625 4.1640625 76.1953125 C2 76 2 76 0 74 C-0.8563027 71.36766208 -1.38929927 68.70453182 -2 66 C-2.556875 66.54269531 -3.11375 67.08539063 -3.6875 67.64453125 C-11.84855582 75.29552108 -18.76545645 78 -30 78 C-36.4747948 77.44895363 -42.05546862 76.47362363 -47 72 C-52.30179431 64.84907852 -53.81349598 58.87872756 -53 50 C-51.30320272 42.84483074 -48.25884531 37.91024128 -42 34 C-29.67346224 27.41130194 -15.83009774 25.50111872 -2 26 C-2.27595976 16.97839238 -2.27595976 16.97839238 -6 9 C-11.89640672 5.23633614 -18.16193091 5.22605077 -25 6 C-29.50921822 7.06143534 -32.07927274 8.73943349 -34.8203125 12.4921875 C-36.3194382 14.95354271 -37.70366345 17.42696836 -39 20 C-43.3890815 19.48964169 -46.33708062 18.47785723 -50 16 C-46.78245477 7.53277572 -42.25042731 1.93965041 -34 -2 C-23.38011651 -5.62444711 -9.89295705 -5.90279771 0 0 Z M-38.0625 43.125 C-41.42637471 48.11655602 -42.44346426 53.38848825 -41.4375 59.3125 C-39.11290274 63.65848619 -35.80100389 67.49111306 -31 69 C-23.23537459 69.81732899 -15.74651951 68.01786093 -9.58984375 63.05859375 C-4.36053539 58.22427678 -4.36053539 58.22427678 -1.77294922 51.9152832 C-1.78865967 50.74485474 -1.78865967 50.74485474 -1.8046875 49.55078125 C-1.81435547 48.27944336 -1.81435547 48.27944336 -1.82421875 46.98242188 C-1.84097656 46.10134766 -1.85773437 45.22027344 -1.875 44.3125 C-1.88402344 43.41982422 -1.89304687 42.52714844 -1.90234375 41.60742188 C-1.92590252 39.40467686 -1.95879671 37.20247412 -2 35 C-14.32959075 34.81031399 -27.67803031 35.9194496 -38.0625 43.125 Z " fill="#F9FAFB" transform="translate(915,107)"/>
<path d="M0 0 C2.475 0.495 2.475 0.495 5 1 C5 8.92 5 16.84 5 25 C10.28 25.33 15.56 25.66 21 26 C21 28.64 21 31.28 21 34 C17.19941525 37.80058475 10.36293408 35.64247106 5 36 C5.33 52.5 5.66 69 6 86 C11.00780558 86.18485407 11.00780558 86.18485407 14.3125 83.5 C15.6428125 82.2625 15.6428125 82.2625 17 81 C18.32 81.66 19.64 82.32 21 83 C18.70492397 89.75022363 15.18661043 93.42294778 9.140625 97.14453125 C4.21270584 99.1139004 -2.14153702 98.90810376 -7.1640625 97.3125 C-11.91682489 94.80002649 -15.60480505 90.79038991 -18 86 C-19.42016366 77.1089754 -19.15389107 67.9855231 -19.13037109 59.0090332 C-19.12495734 56.54307052 -19.13037388 54.07728567 -19.13671875 51.61132812 C-19.13605881 50.03385377 -19.13477939 48.45637952 -19.1328125 46.87890625 C-19.13584885 45.78045128 -19.13584885 45.78045128 -19.13894653 44.6598053 C-19.1234815 41.2993726 -19.04778112 38.21253646 -18 35 C-20.64 35 -23.28 35 -26 35 C-26.33 33.35 -26.66 31.7 -27 30 C-26.35933594 29.50371094 -25.71867187 29.00742188 -25.05859375 28.49609375 C-14.45566135 20.16860437 -6.87531029 11.63832645 0 0 Z " fill="#FBFBFC" transform="translate(345,89)"/>
<path d="M0 0 C1.51400391 0.01740234 1.51400391 0.01740234 3.05859375 0.03515625 C4.07050781 0.04417969 5.08242188 0.05320312 6.125 0.0625 C7.29869141 0.07990234 7.29869141 0.07990234 8.49609375 0.09765625 C8.50195999 0.82126846 8.50782623 1.54488068 8.51387024 2.29042053 C8.57193003 9.13144752 8.64408238 15.97219872 8.73180866 22.81290531 C8.77641281 26.32926678 8.81569013 29.84551505 8.8425293 33.36206055 C8.87367018 37.41093725 8.92845474 41.45920163 8.984375 45.5078125 C8.99076492 46.76223648 8.99715485 48.01666046 9.0037384 49.30909729 C9.10965903 55.62712405 9.31968535 60.56201085 12.49609375 66.09765625 C15.55386983 68.70109296 19.14895973 69.0935802 23.078125 69.10546875 C30.9141349 68.18622295 36.79788235 64.43972944 42.49609375 59.09765625 C45.05370522 55.47636987 45.87675719 52.98899833 45.9284668 48.57299805 C45.94826096 47.4922551 45.96805511 46.41151215 45.9884491 45.29801941 C45.99483902 44.14264175 46.00122894 42.9872641 46.0078125 41.796875 C46.0257637 40.60536331 46.0437149 39.41385162 46.06221008 38.18623352 C46.11633066 34.38591027 46.15021551 30.58571277 46.18359375 26.78515625 C46.21676515 24.20636271 46.25125464 21.62758576 46.28710938 19.04882812 C46.37205867 12.73186152 46.43886231 6.41493233 46.49609375 0.09765625 C50.12609375 0.09765625 53.75609375 0.09765625 57.49609375 0.09765625 C57.49609375 25.83765625 57.49609375 51.57765625 57.49609375 78.09765625 C54.52609375 78.09765625 51.55609375 78.09765625 48.49609375 78.09765625 C45.48992106 75.09148356 45.90024059 72.27384027 45.49609375 68.09765625 C44.86703125 68.64035156 44.23796875 69.18304688 43.58984375 69.7421875 C35.7529856 76.29257346 28.87557313 80.09765625 18.49609375 80.09765625 C12.39064128 79.50650805 7.08746629 78.36870048 2.49609375 74.09765625 C-1.97729316 67.0228976 -3.62663381 60.54848109 -3.63330078 52.19995117 C-3.63645294 51.06244919 -3.6396051 49.9249472 -3.64285278 48.75297546 C-3.64082855 47.54027481 -3.63880432 46.32757416 -3.63671875 45.078125 C-3.63767548 43.8238118 -3.6386322 42.5694986 -3.63961792 41.2771759 C-3.64029709 38.63372305 -3.63896603 35.99036332 -3.63427734 33.34692383 C-3.62855123 29.95277076 -3.63188251 26.55869627 -3.63784981 23.16454601 C-3.64231875 19.92740279 -3.63919733 16.69026924 -3.63671875 13.453125 C-3.63874298 12.23030319 -3.64076721 11.00748138 -3.64285278 9.74760437 C-3.63970062 8.62586319 -3.63654846 7.50412201 -3.63330078 6.34838867 C-3.63250519 5.35610764 -3.63170959 4.3638266 -3.63088989 3.34147644 C-3.45033324 0.15101309 -3.20958387 0.12517878 0 0 Z " fill="#F9FAFC" transform="translate(668.50390625,104.90234375)"/>
<path d="M0 0 C9.9 0 19.8 0 30 0 C30.88647028 3.54588112 31.14563877 6.22492726 31.18945312 9.83837891 C31.20617065 11.01284576 31.22288818 12.18731262 31.2401123 13.39736938 C31.25368774 14.66100311 31.26726318 15.92463684 31.28125 17.2265625 C31.30937166 19.21112407 31.33749858 21.19568558 31.36594391 23.18024254 C31.42445648 27.36865057 31.47458729 31.5571672 31.52606201 35.7456665 C31.56881174 39.19982457 31.6134024 42.6539341 31.66296387 46.10800171 C31.69972994 48.69878294 31.73214216 51.28963015 31.7598877 53.88052368 C31.77660522 55.04868622 31.79332275 56.21684875 31.81054688 57.42041016 C31.82307495 58.45203278 31.83560303 59.4836554 31.84851074 60.54653931 C31.83974889 63.00553276 31.83974889 63.00553276 33 65 C34.97522846 66.04808041 36.97481509 67.0520411 39 68 C38.505 69.485 38.505 69.485 38 71 C25.46 71 12.92 71 0 71 C0 69.68 0 68.36 0 67 C1.4540625 66.505 1.4540625 66.505 2.9375 66 C4.4534375 65.01 4.4534375 65.01 6 64 C7.34596609 57.46715166 7.04948658 50.9214601 6.87890625 44.28125 C6.85529526 43.18276733 6.83168427 42.08428467 6.80735779 40.95251465 C6.73121466 37.46819521 6.64697971 33.98412627 6.5625 30.5 C6.50922985 28.12761614 6.45648985 25.75522031 6.40429688 23.3828125 C6.27566688 17.58838906 6.14040525 11.79414943 6 6 C4.02 5.34 2.04 4.68 0 4 C0 2.68 0 1.36 0 0 Z " fill="#FAFBFB" transform="translate(275,115)"/>
<path d="M0 0 C0 8.91 0 17.82 0 27 C6.27 27 12.54 27 19 27 C19 29.97 19 32.94 19 36 C12.73 36 6.46 36 0 36 C0.06884506 43.59920172 0.15679866 51.19785157 0.26245117 58.79663086 C0.29570111 61.38152954 0.32373277 63.96650084 0.34643555 66.55151367 C0.37997927 70.26773009 0.43229728 73.98328101 0.48828125 77.69921875 C0.49467117 78.85459641 0.5010611 80.00997406 0.50764465 81.20036316 C0.52743881 82.28110611 0.54723297 83.36184906 0.56762695 84.4753418 C0.57873001 85.42354294 0.58983307 86.37174408 0.60127258 87.34867859 C1.12035568 90.80030009 2.51504103 93.51504103 5 96 C7.69235776 96.23678716 10.36498156 96.42198025 13.0625 96.5625 C14.20041992 96.62727539 14.20041992 96.62727539 15.36132812 96.69335938 C17.24065438 96.79973633 19.12030244 96.90039934 21 97 C21 99.64 21 102.28 21 105 C13.52046098 108.02743246 5.10249806 107.60677742 -2.54296875 105.19921875 C-7.85581782 102.45806773 -9.32470994 98.57969979 -11.18811035 93.12387085 C-12.55353666 87.8701822 -12.60335358 82.73544181 -12.609375 77.33203125 C-12.62591125 76.17120529 -12.64244751 75.01037933 -12.65948486 73.81437683 C-12.7076396 70.14702899 -12.72926414 66.48009482 -12.75 62.8125 C-12.77818676 60.30922434 -12.80811792 57.80596768 -12.83984375 55.30273438 C-12.91339024 49.20185702 -12.96316349 43.10120495 -13 37 C-16.96 36.67 -20.92 36.34 -25 36 C-25.09765625 29.84765625 -25.09765625 29.84765625 -25 28 C-24 27 -24 27 -21.27734375 26.90234375 C-20.17519531 26.91394531 -19.07304688 26.92554687 -17.9375 26.9375 C-16.28041016 26.95103516 -16.28041016 26.95103516 -14.58984375 26.96484375 C-13.73519531 26.97644531 -12.88054688 26.98804687 -12 27 C-12.00523682 26.28344238 -12.01047363 25.56688477 -12.01586914 24.82861328 C-12.03660667 21.59408438 -12.04964984 18.35956944 -12.0625 15.125 C-12.07506836 13.43310547 -12.07506836 13.43310547 -12.08789062 11.70703125 C-12.09111328 10.63066406 -12.09433594 9.55429688 -12.09765625 8.4453125 C-12.10289307 7.45031738 -12.10812988 6.45532227 -12.11352539 5.43017578 C-12 3 -12 3 -11 1 C-6.6346171 -0.56494859 -4.57188412 -1.14297103 0 0 Z " fill="#F8F9FA" transform="translate(771,78)"/>
<path d="M0 0 C0.125 7.625 0.125 7.625 -1 11 C-3.07421875 11.7734375 -3.07421875 11.7734375 -5.6875 12.375 C-13.14465715 14.44643254 -17.00695152 18.46482651 -20.921875 24.9375 C-23.03946352 28.9885389 -24.24611747 32.37975344 -24.31884766 36.97387695 C-24.33871735 37.93449539 -24.35858704 38.89511383 -24.37905884 39.88484192 C-24.39638565 41.42104439 -24.39638565 41.42104439 -24.4140625 42.98828125 C-24.43342865 44.04661667 -24.4527948 45.10495209 -24.4727478 46.19535828 C-24.53241248 49.56765748 -24.57887693 52.93999106 -24.625 56.3125 C-24.66319181 58.60222823 -24.70224424 60.89194228 -24.7421875 63.18164062 C-24.83810344 68.78764491 -24.92218328 74.39371645 -25 80 C-28.63 80 -32.26 80 -36 80 C-37.46298036 77.07403928 -37.12733571 74.49428918 -37.12939453 71.22705078 C-37.13114685 70.53092682 -37.13289917 69.83480286 -37.13470459 69.11758423 C-37.13911539 66.81013515 -37.13618719 64.50276239 -37.1328125 62.1953125 C-37.13348591 60.59349554 -37.13445625 58.99167867 -37.13571167 57.38986206 C-37.13718772 54.02894113 -37.13503762 50.66804675 -37.13037109 47.30712891 C-37.12468304 43.0006657 -37.12794752 38.69426493 -37.13394356 34.38780403 C-37.1375595 31.07811006 -37.13640566 27.76843084 -37.13381577 24.45873642 C-37.13314888 22.87112292 -37.13396659 21.28350808 -37.13629532 19.69589615 C-37.13883775 17.47447418 -37.13495838 15.25315277 -37.12939453 13.03173828 C-37.12859894 11.76758087 -37.12780334 10.50342346 -37.12698364 9.20095825 C-37 6 -37 6 -36 2 C-32.7 2 -29.4 2 -26 2 C-25.04972401 4.85082796 -24.70808784 7.21103374 -24.4375 10.1875 C-24.35371094 11.08855469 -24.26992188 11.98960938 -24.18359375 12.91796875 C-24.12300781 13.60503906 -24.06242188 14.29210937 -24 15 C-23.505 14.154375 -23.01 13.30875 -22.5 12.4375 C-16.89987953 4.04728392 -10.10086035 -0.39611217 0 0 Z " fill="#F8F9FA" transform="translate(847,103)"/>
<path d="M0 0 C3.62811762 1.84103366 6.25315519 4.09439081 7.7578125 7.93359375 C8.66858165 12.90406797 7.72687794 16.70310143 5 21 C1.47214108 23.7041738 -1.67210416 25 -6.125 25 C-10.25053679 23.56503068 -13.64266209 21.72752098 -16.375 18.25 C-17.66468814 13.60712268 -17.66450886 9.57383678 -15.8125 5.1875 C-11.50789655 -0.00771106 -6.52392426 -1.34709016 0 0 Z " fill="#FAFCFC" transform="translate(299,81)"/>
<path d="M0 0 C3.9290625 -0.0309375 3.9290625 -0.0309375 7.9375 -0.0625 C8.7637085 -0.071604 9.58991699 -0.08070801 10.44116211 -0.09008789 C12.29433759 -0.09723945 14.14749308 -0.0502852 16 0 C17.98119355 1.98119355 17.18500411 5.73445064 17.1875 8.4375 C17.19974609 9.13166016 17.21199219 9.82582031 17.22460938 10.54101562 C17.22989842 12.36220901 17.12169207 14.1828692 17 16 C15 18 15 18 11.5234375 18.1953125 C10.14047367 18.18387695 8.75761943 18.15791258 7.375 18.125 C3.724375 18.063125 3.724375 18.063125 0 18 C0 12.06 0 6.12 0 0 Z " fill="#ED3538" transform="translate(950,165)"/>
<path d="M0 0 C0.33 0 0.66 0 1 0 C1 4.29 1 8.58 1 13 C4.96 13 8.92 13 13 13 C13.33 8.71 13.66 4.42 14 0 C14.33 0 14.66 0 15 0 C15 4.95 15 9.9 15 15 C4.16015625 15.09765625 4.16015625 15.09765625 1 15 C0 14 0 14 -0.09765625 10.83984375 C-0.08025391 8.90818359 -0.08025391 8.90818359 -0.0625 6.9375 C-0.05347656 5.64714844 -0.04445313 4.35679687 -0.03515625 3.02734375 C-0.02355469 2.02832031 -0.01195312 1.02929688 0 0 Z " fill="#EF3F46" transform="translate(951,167)"/>
</svg>
