<?xml version="1.0" encoding="UTF-8"?>
<svg version="1.1" xmlns="http://www.w3.org/2000/svg" width="983" height="254">
<path d="M0 0 C7.61570795 -0.06997515 15.23138192 -0.12304972 22.84733963 -0.15543652 C26.38499683 -0.17099244 29.92243166 -0.19204237 33.45996094 -0.22631836 C37.54103546 -0.26560662 41.62188195 -0.27979226 45.703125 -0.29296875 C46.95361633 -0.30845261 48.20410767 -0.32393646 49.49249268 -0.33988953 C62.16070034 -0.34228096 72.31315303 1.39364357 81.4921875 10.4765625 C87.24195176 16.83872769 88.57480901 22.65071915 88.35546875 30.99609375 C87.58579684 37.50024431 84.62944004 43.37055996 80 48 C75.79052216 51.11944463 72.22153373 53.1645546 67 54 C72.85661702 63.38504802 79.08778727 72.38165517 85.70410156 81.24560547 C86.93499989 82.91200249 88.14063712 84.59310098 89.3359375 86.28515625 C90.37621094 87.75275391 90.37621094 87.75275391 91.4375 89.25 C92.03433594 90.10078125 92.63117188 90.9515625 93.24609375 91.828125 C96.28733407 95.59411524 99.48752095 97.37049368 104 99 C104 99.99 104 100.98 104 102 C99.61069107 104.19465447 93.80561596 103.39179684 88.93408203 103.45996094 C87.48485188 103.48652854 86.03580943 103.52741305 84.58740234 103.58300781 C72.69808415 104.03371044 72.69808415 104.03371044 68.89086914 101.71606445 C67.2937515 99.90526816 66.17057522 98.10960267 65 96 C64.01711856 94.59203481 63.02586839 93.18988337 62.02734375 91.79296875 C60.99393759 90.26013832 59.96412275 88.72488192 58.9375 87.1875 C54.31104395 80.33985777 49.59574173 73.56944532 44.75 66.875 C44.18917725 66.09922607 43.62835449 65.32345215 43.05053711 64.52416992 C40.6913429 61.12407403 40.6913429 61.12407403 38 58 C36.33382885 57.95936168 34.66611905 57.957279 33 58 C32.95012925 61.98352168 32.91406036 65.9669195 32.89013672 69.95068359 C32.87527121 71.96328119 32.849843 73.97579188 32.82421875 75.98828125 C32.73561745 85.67639233 32.73561745 85.67639233 35 95 C38.68734758 97.45823172 41.69699971 98.01242616 46 99 C45.505 100.98 45.505 100.98 45 103 C30.15 103 15.3 103 0 103 C0 101.35 0 99.7 0 98 C1.2065625 97.4121875 1.2065625 97.4121875 2.4375 96.8125 C5.14687141 95.31791574 5.14687141 95.31791574 5.46432495 93.07453918 C5.99881081 86.21341944 6.14538984 79.39268122 6.1328125 72.51171875 C6.13376923 71.33269485 6.13472595 70.15367096 6.13571167 68.93891907 C6.13638924 66.45040839 6.13456457 63.96189591 6.13037109 61.47338867 C6.12506991 57.73677404 6.13030312 54.00028255 6.13671875 50.26367188 C6.14083957 43.17497854 6.08388029 36.0881424 6 29 C5.99206421 27.93235413 5.98412842 26.86470825 5.97595215 25.76470947 C5.94597885 22.82750002 5.88177093 19.89333399 5.8046875 16.95703125 C5.79946075 16.09937668 5.79423401 15.24172211 5.78884888 14.358078 C5.7079477 12.1225853 5.59714938 10.15607565 5 8 C2.55407446 5.68287235 2.55407446 5.68287235 0 4 C0 2.68 0 1.36 0 0 Z M33 7 C30.16500245 16.44999185 32.06390526 28.05864809 32.4375 37.8125 C32.47665527 38.89305664 32.51581055 39.97361328 32.55615234 41.08691406 C32.59820801 42.09592773 32.64026367 43.10494141 32.68359375 44.14453125 C32.72025146 45.05565674 32.75690918 45.96678223 32.79467773 46.90551758 C32.77497536 48.9865575 32.77497536 48.9865575 34 50 C45.62429244 50.09107881 45.62429244 50.09107881 55.71484375 45.453125 C61.5402285 39.03834838 61.35802651 33.18940893 61.21484375 24.71484375 C60.87729202 18.87826752 59.8772117 14.92794716 55.6875 10.625 C50.38071442 7.41624593 45.7771256 6.75892216 39.625 6.875 C37.75714844 6.90207031 37.75714844 6.90207031 35.8515625 6.9296875 C34.91054688 6.95289062 33.96953125 6.97609375 33 7 Z " fill="#FBFBFC" transform="translate(0,83)"/>
<path d="M0 0 C15.84 0.495 15.84 0.495 32 1 C32.029729 5.06598511 32.029729 5.06598511 32.06005859 9.21411133 C32.12689298 18.15888941 32.20453341 27.10355 32.28752708 36.04819202 C32.3375246 41.47261295 32.38385434 46.89701406 32.421875 52.3215332 C32.45868413 57.55411951 32.50503215 62.78654149 32.55806351 68.01898766 C32.57663073 70.01768811 32.59173003 72.01642382 32.60334396 74.01517677 C32.62016659 76.80952495 32.64919187 79.60349486 32.68115234 82.39770508 C32.68331253 83.22848572 32.68547272 84.05926636 32.68769836 84.91522217 C32.74447133 88.78738432 32.80294627 90.70441941 35 94 C35.845625 94.33 36.69125 94.66 37.5625 95 C38.366875 95.33 39.17125 95.66 40 96 C40.33 96.99 40.66 97.98 41 99 C34.86564932 102.03672112 28.79057416 103.11418215 22.0625 104.1875 C20.46438477 104.45336914 20.46438477 104.45336914 18.83398438 104.72460938 C16.2238539 105.15768035 13.61266981 105.58257234 11 106 C9.0549 103.08235 8.54723683 101.37462715 8 98 C7.56429687 98.40992188 7.12859375 98.81984375 6.6796875 99.2421875 C0.99257948 104.38766619 -3.89594932 106.52975859 -11.63671875 106.30859375 C-18.44600554 105.41944721 -23.83147697 102.03729758 -28.43359375 97.05078125 C-36.28240698 86.77490358 -37.85923848 75.59321394 -37 63 C-35.30767923 51.23308217 -31.34363444 41.62407423 -22 34 C-15.65432584 30.19259551 -8.96648529 28.79976605 -1.65625 30.56640625 C2.63650471 31.89743896 4.72279927 32.72279927 8 36 C8 26.43 8 16.86 8 7 C3.545 6.01 3.545 6.01 -1 5 C-0.67 3.35 -0.34 1.7 0 0 Z M-7.5625 40.375 C-13.94894338 47.25270825 -13.44039709 57.20690558 -13.3125 66.0625 C-13.31572266 67.18205078 -13.31894531 68.30160156 -13.32226562 69.45507812 C-13.26187417 78.8157532 -12.98708449 88.01291551 -6 95 C-2.53291592 95.48539177 -0.03659775 95.66317769 2.984375 93.73046875 C6.49266751 90.77282551 6.49266751 90.77282551 9 87 C9.13574006 84.15339052 9.21274662 81.33248668 9.23828125 78.484375 C9.246353 77.63578918 9.25442474 76.78720337 9.26274109 75.91290283 C9.27658441 74.11399378 9.28730546 72.31505843 9.29516602 70.51611328 C9.31234614 67.77455272 9.35622484 65.03420844 9.40039062 62.29296875 C9.41052061 60.54427969 9.41903575 58.79558039 9.42578125 57.046875 C9.44328934 56.23103943 9.46079742 55.41520386 9.47883606 54.574646 C9.45870584 49.2495974 8.56224367 46.20659483 5 42 C0.6185401 39.26158756 -2.70773748 37.77000548 -7.5625 40.375 Z " fill="#FBFCFC" transform="translate(222,82)"/>
<path d="M0 0 C4.63060973 3.68343956 6.84476104 7.4048144 7.75 13.1875 C7.85713855 14.75149144 7.92441673 16.31863419 7.95532227 17.88598633 C7.9852401 19.2368206 7.9852401 19.2368206 8.01576233 20.61494446 C8.03247482 21.5734581 8.04918732 22.53197174 8.06640625 23.51953125 C8.08718735 24.51127853 8.10796844 25.50302582 8.12937927 26.52482605 C8.19460052 29.68314899 8.25363202 32.84155288 8.3125 36 C8.35571131 38.14519056 8.39932643 40.29037302 8.44335938 42.43554688 C8.55025372 47.68611311 8.65207037 52.93675932 8.75 58.1875 C10.73 57.5275 12.71 56.8675 14.75 56.1875 C15.41 57.1775 16.07 58.1675 16.75 59.1875 C13.62860461 64.42338904 10.9664224 67.37698988 5.21875 69.58984375 C0.24279137 70.79446665 -4.63050887 70.61920568 -9.1796875 68.1328125 C-12.22589434 65.78621297 -13.54654621 63.89446435 -14.25 60.1875 C-14.96285156 60.65800781 -15.67570312 61.12851563 -16.41015625 61.61328125 C-30.96535581 71.07514045 -30.96535581 71.07514045 -39.25 70.1875 C-44.91468544 68.42949417 -48.03691817 66.19612756 -51.25 61.1875 C-52.92763858 56.18565165 -52.27973086 52.08555945 -50.4296875 47.2421875 C-46.65658091 40.67048529 -41.85379297 37.31372661 -35.4375 33.5625 C-34.66857422 33.0984375 -33.89964844 32.634375 -33.10742188 32.15625 C-19.76989539 24.1875 -19.76989539 24.1875 -15.25 24.1875 C-15.33716617 21.60257211 -15.44405119 19.02102498 -15.5625 16.4375 C-15.59633789 15.34308594 -15.59633789 15.34308594 -15.63085938 14.2265625 C-15.788551 11.07273007 -16.07598457 8.54162694 -17.4765625 5.69140625 C-19.84874555 3.67975323 -21.23884046 3.74372441 -24.3125 3.875 C-25.19035156 3.89949219 -26.06820313 3.92398438 -26.97265625 3.94921875 C-29.27931501 4.05561224 -29.27931501 4.05561224 -31.25 5.1875 C-30.70276317 8.56212715 -30.1951 10.26985 -28.25 13.1875 C-27.47189474 20.07928947 -27.47189474 20.07928947 -30.3125 24.125 C-33.86907735 26.62217133 -35.9088867 27.1875 -40.25 27.1875 C-43.80514412 26.06170436 -46.37443625 24.95008778 -49.1875 22.5 C-50.80944525 18.96988387 -51.04696323 15.92861665 -50.25 12.1875 C-46.74191662 4.47742664 -41.5241826 0.2520374 -33.78515625 -2.77734375 C-21.91672081 -6.55920937 -10.82619867 -6.03768772 0 0 Z M-22.25 35.5 C-23.136875 36.30050781 -24.02375 37.10101563 -24.9375 37.92578125 C-28.19611758 41.11284135 -29.54982943 43.17726574 -29.625 47.6875 C-29.54935195 51.27541074 -29.54935195 51.27541074 -27.625 54.25 C-24.58249717 55.45098796 -22.49757827 55.59344728 -19.25 55.1875 C-17.01221114 54.04828341 -17.01221114 54.04828341 -15.25 52.1875 C-14.70086421 49.87659272 -14.70086421 49.87659272 -14.859375 47.30078125 C-14.87226563 46.36298828 -14.88515625 45.42519531 -14.8984375 44.45898438 C-14.93195313 43.48251953 -14.96546875 42.50605469 -15 41.5 C-15.01804687 40.51193359 -15.03609375 39.52386719 -15.0546875 38.50585938 C-15.10184553 36.06543158 -15.16763958 33.62695231 -15.25 31.1875 C-18.47123907 31.1875 -19.92811513 33.38397992 -22.25 35.5 Z " fill="#FAFBFC" transform="translate(497.25,116.8125)"/>
<path d="M0 0 C7.83738003 -0.2845976 15.56009287 0.55623323 21.921875 5.5234375 C26.81935527 10.54036851 28.55700023 14.92494959 28.68969727 21.82519531 C28.7196151 23.20617401 28.7196151 23.20617401 28.75013733 24.61505127 C28.76684982 25.60059998 28.78356232 26.58614868 28.80078125 27.6015625 C28.82156235 28.61692078 28.84234344 29.63227905 28.86375427 30.67840576 C28.92908097 33.91834823 28.98805637 37.15837098 29.046875 40.3984375 C29.09007626 42.59636243 29.13369107 44.79427928 29.17773438 46.9921875 C29.28474507 52.37751956 29.38654273 57.7629313 29.484375 63.1484375 C30.433125 62.7978125 31.381875 62.4471875 32.359375 62.0859375 C35.484375 61.1484375 35.484375 61.1484375 37.484375 62.1484375 C36.99553786 66.38502606 34.58113545 69.39062596 31.484375 72.1484375 C26.48841195 75.23483245 21.5596276 75.59716321 15.82421875 74.79296875 C11.98355152 73.73502202 10.15833151 72.09664596 7.484375 69.1484375 C6.83203125 66.98046875 6.83203125 66.98046875 6.484375 65.1484375 C5.54078125 65.85419922 5.54078125 65.85419922 4.578125 66.57421875 C-3.28557601 72.29435066 -9.61184201 76.10686811 -19.515625 75.1484375 C-23.65630938 73.68701948 -26.88218246 71.60599562 -29.59765625 68.08203125 C-31.56541298 63.93718197 -31.19039185 59.58632719 -30.515625 55.1484375 C-25.69375963 42.77930459 -11.81322166 35.94476394 -0.390625 30.7109375 C3.17893567 29.1484375 3.17893567 29.1484375 5.484375 29.1484375 C5.154375 22.8784375 4.824375 16.6084375 4.484375 10.1484375 C1.52088219 9.16060656 -0.4868913 9.01433225 -3.578125 9.0234375 C-4.45597656 9.02085938 -5.33382812 9.01828125 -6.23828125 9.015625 C-8.54760766 9.00010326 -8.54760766 9.00010326 -10.515625 10.1484375 C-10.02900943 13.36010026 -9.27784378 15.63280665 -7.828125 18.5859375 C-6.515625 22.1484375 -6.515625 22.1484375 -7.078125 25.3984375 C-8.65389875 28.41296119 -9.50376275 29.60180553 -12.515625 31.1484375 C-16.51508402 32.18533428 -18.7859361 32.40597476 -22.703125 31.0234375 C-25.88687975 28.90093433 -27.67859349 27.52857548 -29.515625 24.1484375 C-30.05522834 19.99825297 -29.36005728 16.63702005 -27.296875 13 C-21.97420547 6.19011399 -14.24623834 2.31034253 -5.953125 0.2734375 C-3.96796992 0.20125004 -1.98301797 0.11701038 0 0 Z M-4.515625 43.1484375 C-7.42453599 46.55399183 -8.40460606 48.34355015 -9.015625 52.7734375 C-8.75178311 56.14705347 -8.75178311 56.14705347 -6.953125 58.5859375 C-3.59710094 60.73723497 -1.43140829 60.63791041 2.484375 60.1484375 C4.75735946 59.02834347 4.75735946 59.02834347 6.484375 57.1484375 C7.00755048 54.75249618 7.00755048 54.75249618 6.796875 52.0859375 C6.74466797 50.63574219 6.74466797 50.63574219 6.69140625 49.15625 C6.39201855 44.80665513 6.01014419 40.47664454 5.484375 36.1484375 C2.17433686 36.1484375 -2.11739207 41.07723633 -4.515625 43.1484375 Z " fill="#FAFBFC" transform="translate(139.515625,111.8515625)"/>
<path d="M0 0 C5.74339575 -0.0499526 11.48666119 -0.08597755 17.23022461 -0.10986328 C19.17848925 -0.11983541 21.12673926 -0.13341797 23.07495117 -0.15087891 C56.20716093 -0.4400946 56.20716093 -0.4400946 67.03125 8.71875 C72.97254887 14.86144883 76.1158725 22.52597017 76.4375 31.0625 C76.0008161 39.95113038 73.29660754 47.6071561 67 54 C54.83558827 64.2768306 40.10144591 64.16730133 24.9375 64.0625 C23.69033203 64.05798828 22.44316406 64.05347656 21.15820312 64.04882812 C18.10541779 64.03713163 15.05273502 64.02074086 12 64 C12.00666183 64.59690643 12.01332367 65.19381287 12.02018738 65.80880737 C12.08640839 72.00513335 12.13174527 78.20135931 12.16479492 84.39794922 C12.17990853 86.71244385 12.20039996 89.02690974 12.22631836 91.34130859 C12.26258841 94.66250696 12.27970044 97.98332768 12.29296875 101.3046875 C12.30845261 102.34430634 12.32393646 103.38392517 12.33988953 104.45504761 C12.34022942 105.89631516 12.34022942 105.89631516 12.34057617 107.36669922 C12.34723801 108.21497284 12.35389984 109.06324646 12.36076355 109.93722534 C12.24171158 110.61794098 12.12265961 111.29865662 12 112 C8.64672361 114.23551759 8.09256343 114.17283528 4.3125 113.625 C3.50425781 113.51414062 2.69601562 113.40328125 1.86328125 113.2890625 C1.24839844 113.19367188 0.63351562 113.09828125 0 113 C-1.27173572 108.10864201 -1.14048414 103.28720536 -1.12939453 98.27197266 C-1.13114685 97.29737595 -1.13289917 96.32277924 -1.13470459 95.31864929 C-1.13910173 92.10043552 -1.13619215 88.88227682 -1.1328125 85.6640625 C-1.13348626 83.42353301 -1.13445689 81.1830036 -1.13571167 78.94247437 C-1.13718584 74.24679875 -1.13504349 69.55114216 -1.13037109 64.85546875 C-1.12468057 58.84434808 -1.12795032 52.83327212 -1.13394356 46.82215309 C-1.13756235 42.19470891 -1.1364044 37.56727528 -1.13381577 32.93983078 C-1.1331498 30.72391123 -1.13396335 28.50799072 -1.13629532 26.2920723 C-1.13884271 23.19029466 -1.13495152 20.08858872 -1.12939453 16.98681641 C-1.13141876 16.07541397 -1.13344299 15.16401154 -1.13552856 14.22499084 C-1.11948472 9.37611013 -0.81785116 4.78132665 0 0 Z M12 10 C12 24.19 12 38.38 12 53 C19.8271875 53.12375 19.8271875 53.12375 27.8125 53.25 C29.43518799 53.28641602 31.05787598 53.32283203 32.72973633 53.36035156 C41.43836994 53.42663789 50.6175798 53.47658317 57.69873047 47.5871582 C62.9383342 41.72942005 63.44438848 35.7767943 63.31640625 28.234375 C62.74469646 22.39023048 60.7254262 18.6811845 56.5625 14.625 C49.91846252 10.41170794 43.38552249 9.87030776 35.6328125 9.90234375 C34.38902832 9.90484131 33.14524414 9.90733887 31.86376953 9.90991211 C30.29997559 9.91901611 28.73618164 9.92812012 27.125 9.9375 C22.13375 9.958125 17.1425 9.97875 12 10 Z " fill="#F8F9FA" transform="translate(572,69)"/>
<path d="M0 0 C-0.25 2.375 -0.25 2.375 -1 5 C-1.62600098 5.29688721 -2.25200195 5.59377441 -2.89697266 5.8996582 C-10.0512945 9.6429283 -12.90977992 24.17524564 -15.625 31.3125 C-16.14832031 32.6755444 -16.67209178 34.03841567 -17.19628906 35.40112305 C-19.80887234 42.20425291 -22.38808193 49.0196391 -24.9453125 55.84375 C-33.18283675 77.81630591 -33.18283675 77.81630591 -37.3125 87.375 C-37.60157227 88.06376221 -37.89064453 88.75252441 -38.18847656 89.4621582 C-40.92071825 95.59732491 -44.53302514 100.60952326 -50.4375 103.9375 C-55.99192739 105.59408361 -59.98877129 105.68343851 -65.25 103.25 C-69.5075849 100.89474027 -71.41178585 98.89068834 -72.875 94.1875 C-73.06594725 89.31834501 -71.50201276 85.72453317 -68.3125 82.0625 C-64.86172638 80.47700942 -61.67136242 80.24241728 -58 81 C-54.99160682 83.0482677 -53.36650462 84.52030597 -52.4765625 88.11328125 C-52.22001108 90.0651522 -52.09997216 92.03388088 -52 94 C-47.20377575 92.16314816 -46.17884151 88.97925164 -44.109375 84.52734375 C-41.05883059 77.577688 -40.50108549 73.17226959 -43.13232422 65.84814453 C-43.6017041 64.78708496 -44.07108398 63.72602539 -44.5546875 62.6328125 C-45.08191406 61.42890869 -45.60914063 60.22500488 -46.15234375 58.98461914 C-46.72622695 57.69792971 -47.30045325 56.41139327 -47.875 55.125 C-48.46293871 53.79384698 -49.05016988 52.46238125 -49.63671875 51.13061523 C-50.83438539 48.41364991 -52.03660793 45.6987594 -53.24121094 42.98486328 C-54.89955541 39.23980084 -56.52008195 35.47977822 -58.1328125 31.71484375 C-58.86008545 30.0275415 -58.86008545 30.0275415 -59.60205078 28.30615234 C-60.50945146 26.20071653 -61.41177558 24.09308283 -62.30810547 21.98291016 C-66.23242174 12.56549276 -66.23242174 12.56549276 -73.3125 5.5625 C-73.869375 5.376875 -74.42625 5.19125 -75 5 C-75 3.35 -75 1.7 -75 0 C-62.46 0 -49.92 0 -37 0 C-37.33 1.65 -37.66 3.3 -38 5 C-40.0625 6.3125 -40.0625 6.3125 -42 7 C-41.48217898 13.39816137 -39.27840074 18.60486426 -36.6875 24.4375 C-36.29626953 25.34048828 -35.90503906 26.24347656 -35.50195312 27.17382812 C-33.1602197 32.53690251 -30.66320012 37.78939107 -28 43 C-26.70624133 39.62579827 -25.41536939 36.25049917 -24.125 32.875 C-23.76019531 31.92367187 -23.39539063 30.97234375 -23.01953125 29.9921875 C-19.16492292 20.83101436 -19.16492292 20.83101436 -17.875 11.125 C-17.89304687 10.34382813 -17.91109375 9.56265625 -17.9296875 8.7578125 C-17.95289063 8.17773438 -17.97609375 7.59765625 -18 7 C-20.31 6.01 -22.62 5.02 -25 4 C-25 2.68 -25 1.36 -25 0 C-22.33373641 -0.19693992 -19.66743361 -0.38274782 -17 -0.5625 C-16.25621094 -0.61857422 -15.51242187 -0.67464844 -14.74609375 -0.73242188 C-9.66997882 -1.06347285 -5.02988738 -0.77163045 0 0 Z " fill="#F9FAFB" transform="translate(437,114)"/>
<path d="M0 0 C9.25795465 0.40530216 15.25917883 1.99680565 21.640625 8.8359375 C27.16881442 15.18692721 27.0789257 22.08062698 27.14453125 30.09765625 C27.16152573 31.1728804 27.1785202 32.24810455 27.19602966 33.35591125 C27.24900554 36.78669383 27.28933656 40.21746759 27.328125 43.6484375 C27.37232488 47.06148956 27.41932896 50.47445708 27.47093201 53.8874054 C27.50240183 56.0066337 27.52943326 58.12593448 27.55116272 60.24528503 C27.64213094 66.85954714 28.07159424 73.38269129 28.765625 79.9609375 C22.44283329 81.17685898 22.44283329 81.17685898 19.609375 80.2734375 C17.15344819 78.52515062 17.01747561 77.26339941 16.515625 74.3359375 C16.36609375 73.51867187 16.2165625 72.70140625 16.0625 71.859375 C15.96453125 71.23289062 15.8665625 70.60640625 15.765625 69.9609375 C15.146875 70.64929688 15.146875 70.64929688 14.515625 71.3515625 C8.51043971 77.73207187 2.23874536 81.63305471 -6.625 82.1640625 C-22.44602508 82.3562207 -22.44602508 82.3562207 -28.41796875 77.00390625 C-33.31751351 71.87728812 -36.199065 67.65716758 -36.25390625 60.36328125 C-35.84967 52.42058525 -33.9687735 46.25249127 -28.109375 40.7109375 C-15.90130117 31.20718383 0.9175823 30.39228906 15.765625 30.9609375 C14.66860897 21.49421721 14.66860897 21.49421721 10.765625 12.9609375 C5.32813393 9.19146905 -2.94681191 10.36835963 -9.234375 10.9609375 C-13.57353464 12.31692489 -16.13976782 14.25926369 -18.59375 18.07421875 C-19.88426879 20.47994807 -19.88426879 20.47994807 -21.234375 23.9609375 C-25.90899351 24.28707368 -28.40111883 23.66676538 -32.234375 20.9609375 C-30.5668181 14.29070992 -27.30698571 9.19424795 -21.74609375 5.15234375 C-14.35282541 0.79167487 -8.42372514 -0.10173581 0 0 Z M-19.9296875 47.44921875 C-23.5695956 51.64031293 -24.60309994 55.31869945 -24.51171875 60.83203125 C-24.01020726 64.6816617 -22.56384357 66.83454547 -20.234375 69.9609375 C-15.85780679 73.27005005 -11.44067558 73.53769689 -6.109375 73.37109375 C2.20942809 72.18430798 8.50037993 67.27324835 13.765625 60.9609375 C16.35400261 57.07837109 16.02355618 53.82870533 15.953125 49.3359375 C15.95248047 48.54703125 15.95183594 47.758125 15.95117188 46.9453125 C16.28199136 43.14550327 16.28199136 43.14550327 14.765625 39.9609375 C3.90712929 39.08492377 -11.332705 39.90209817 -19.9296875 47.44921875 Z " fill="#F9FAFB" transform="translate(903.234375,102.0390625)"/>
<path d="M0 0 C1.65 0 3.3 0 5 0 C5 8.25 5 16.5 5 25 C10.28 25 15.56 25 21 25 C21 27.97 21 30.94 21 34 C15.04111036 35.14106397 11.43416497 34.71490722 5 34 C5.33 50.83 5.66 67.66 6 85 C10.8286918 86.57533039 10.8286918 86.57533039 13.75 84.1875 C16.03330825 82.20801418 16.03330825 82.20801418 17 80 C18.32 80.33 19.64 80.66 21 81 C20.66320577 86.38870768 17.70204762 90.29020751 14 94 C8.54374918 97.61401115 3.44499502 98.72766073 -3 98 C-8.96002345 95.97965307 -13.48246898 93.54728421 -16.75 88.0625 C-18.51074213 83.74868179 -19.12631293 79.85159379 -19.11352539 75.2097168 C-19.11344986 74.28913986 -19.11337433 73.36856293 -19.11329651 72.42008972 C-19.10813522 71.4397023 -19.10297394 70.45931488 -19.09765625 69.44921875 C-19.0962413 68.43527542 -19.09482635 67.42133209 -19.09336853 66.37666321 C-19.08778328 63.14691179 -19.07523345 59.91723038 -19.0625 56.6875 C-19.0574831 54.49414163 -19.05292052 52.30078217 -19.04882812 50.10742188 C-19.03781868 44.73825747 -19.0210952 39.36913374 -19 34 C-21.64 34 -24.28 34 -27 34 C-26.78678665 30.27542937 -26.14116604 29.13297337 -23.375 26.52734375 C-22.25621522 25.65602283 -21.13080917 24.79315773 -20 23.9375 C-12.44505218 17.90788067 -6.916312 11.06083233 -2.06640625 2.64453125 C-1.38449219 1.77183594 -0.70257813 0.89914063 0 0 Z " fill="#FAFAFB" transform="translate(339,89)"/>
<path d="M0 0 C0.81726563 0.10183594 1.63453125 0.20367187 2.4765625 0.30859375 C3.10304688 0.39238281 3.72953125 0.47617188 4.375 0.5625 C4.39812392 10.71516151 4.41591534 20.8678168 4.42681217 31.02049923 C4.43204089 35.73429733 4.43913834 40.44807747 4.45043945 45.16186523 C4.46126873 49.70705404 4.46727692 54.25222552 4.46987724 58.79742622 C4.47173142 60.53544958 4.47535189 62.27347194 4.48073006 64.01148796 C4.48794103 66.43728595 4.48899092 68.86301146 4.48852539 71.28881836 C4.49212067 72.01458069 4.49571594 72.74034302 4.49942017 73.48809814 C4.48905216 78.44844784 4.48905216 78.44844784 3.375 79.5625 C1.34375 79.4765625 1.34375 79.4765625 -1.125 79.1875 C-1.9396875 79.09726563 -2.754375 79.00703125 -3.59375 78.9140625 C-5.625 78.5625 -5.625 78.5625 -6.625 77.5625 C-6.85692865 76.04780552 -7.03715238 74.52495438 -7.1875 73 C-7.27128906 72.17371094 -7.35507812 71.34742188 -7.44140625 70.49609375 C-7.50199219 69.85800781 -7.56257812 69.21992188 -7.625 68.5625 C-8.35203125 69.25085938 -8.35203125 69.25085938 -9.09375 69.953125 C-17.93924491 78.05015496 -25.38883748 80.97002982 -37.36328125 80.8359375 C-44.56226746 80.23242967 -48.83016308 76.92401168 -53.3984375 71.5390625 C-56.22767997 66.97983737 -56.87485969 62.4901105 -56.86791992 57.20581055 C-56.87099655 55.9682048 -56.87407318 54.73059906 -56.87724304 53.45549011 C-56.87034801 52.1200644 -56.86308125 50.78464056 -56.85546875 49.44921875 C-56.85427552 48.07013492 -56.85382409 46.69105027 -56.8540802 45.31196594 C-56.85252154 42.43310401 -56.84427518 39.55436752 -56.83081055 36.67553711 C-56.81374149 32.97870646 -56.80999881 29.28201236 -56.81075573 25.5851469 C-56.81048452 22.74309477 -56.80501264 19.9010727 -56.79775429 17.05903053 C-56.79456594 15.6950179 -56.79259983 14.33100186 -56.79186058 12.9669857 C-56.78970331 11.06871698 -56.78017534 9.17046087 -56.77026367 7.2722168 C-56.76645187 6.1911113 -56.76264008 5.1100058 -56.75871277 3.99613953 C-56.625 1.5625 -56.625 1.5625 -55.625 0.5625 C-53.96070949 0.46426063 -52.29218069 0.43276369 -50.625 0.4375 C-49.26375 0.43363281 -49.26375 0.43363281 -47.875 0.4296875 C-45.625 0.5625 -45.625 0.5625 -44.625 1.5625 C-44.51729917 3.40214111 -44.47873332 5.24586755 -44.46728516 7.08862305 C-44.45702301 8.27042648 -44.44676086 9.45222992 -44.43618774 10.66984558 C-44.42888641 11.95828873 -44.42158508 13.24673187 -44.4140625 14.57421875 C-44.39318116 16.58520527 -44.37228241 18.59619178 -44.35036278 20.60716724 C-44.29714076 25.58138517 -44.25307059 30.55561302 -44.22363281 35.5300293 C-44.20262044 38.98730978 -44.16725742 42.44419872 -44.12287521 45.90125465 C-44.10191129 47.85422548 -44.0966752 49.80734474 -44.09170532 51.76042175 C-44.07513885 52.95798599 -44.05857239 54.15555023 -44.04150391 55.3894043 C-44.02937363 56.96373482 -44.02937363 56.96373482 -44.01699829 58.56987 C-43.55480602 62.09838142 -42.4415146 64.51733677 -40.625 67.5625 C-36.64442206 70.06457756 -32.19784419 70.1998302 -27.625 69.5625 C-19.92327931 67.4378874 -14.10986178 63.7956218 -9.04907227 57.64819336 C-6.90088807 52.99348736 -7.27569137 48.5938708 -7.3671875 43.53125 C-7.37380402 42.4625769 -7.38042053 41.39390381 -7.38723755 40.29284668 C-7.41061401 36.88243642 -7.45431294 33.47267819 -7.5 30.0625 C-7.53510609 26.65240043 -7.56590994 23.24233875 -7.59133911 19.83215332 C-7.60826266 17.71189387 -7.63136045 15.59167256 -7.66134644 13.47155762 C-7.67110504 12.50705688 -7.68086365 11.54255615 -7.69091797 10.54882812 C-7.70218719 9.70453247 -7.71345642 8.86023682 -7.72506714 7.99035645 C-7.61806312 5.3941955 -7.31632446 3.06873381 -6.625 0.5625 C-4.10446405 -0.69776798 -2.7707902 -0.35624445 0 0 Z " fill="#F9FAFB" transform="translate(727.625,103.4375)"/>
<path d="M0 0 C4.25414623 -0.02465622 8.50825498 -0.04283899 12.76245117 -0.05493164 C14.21070073 -0.05997101 15.65894517 -0.06680253 17.10717773 -0.07543945 C19.18474588 -0.08752247 21.26224697 -0.09323211 23.33984375 -0.09765625 C24.59144287 -0.10289307 25.84304199 -0.10812988 27.13256836 -0.11352539 C30 0 30 0 31 1 C31.11306999 2.91664783 31.15683231 4.83741716 31.17358398 6.75732422 C31.18707382 7.98885223 31.20056366 9.22038025 31.21446228 10.48922729 C31.21952223 11.15152218 31.22458218 11.81381706 31.22979546 12.49618149 C31.24616654 14.5638813 31.26940299 16.63139637 31.29469299 18.69900513 C31.36557206 24.57902868 31.42557898 30.45912858 31.47680664 36.33935547 C31.50859393 39.93270452 31.54987139 43.52584341 31.59700203 47.11902237 C31.61302717 48.48971907 31.6253464 49.86046424 31.63390923 51.23122787 C31.64605884 53.14885773 31.67124178 55.06639166 31.69702148 56.98388672 C31.70732895 58.07563202 31.71763641 59.16737732 31.72825623 60.29220581 C31.80841201 63.22053214 31.80841201 63.22053214 34 66 C36.55183404 67.20450304 36.55183404 67.20450304 39 68 C39 69.32 39 70.64 39 72 C26.46 72 13.92 72 1 72 C0.67 70.68 0.34 69.36 0 68 C1.4540625 67.5978125 1.4540625 67.5978125 2.9375 67.1875 C6.09235005 65.41851501 6.09235005 65.41851501 6.51342773 63.15136719 C7.17298093 53.78325145 7.15074206 44.40540832 7.13037109 35.01831055 C7.12496885 32.04535934 7.13036369 29.07255625 7.13671875 26.09960938 C7.13605867 24.20312467 7.13477896 22.30664005 7.1328125 20.41015625 C7.13483673 19.52473648 7.13686096 18.63931671 7.13894653 17.72706604 C7.13579437 16.90198044 7.13264221 16.07689484 7.12939453 15.22680664 C7.12859894 14.50497696 7.12780334 13.78314728 7.12698364 13.03944397 C6.99099848 10.85542944 6.761591 9.05656102 6 7 C3.01647106 5.21620585 3.01647106 5.21620585 0 4 C0 2.68 0 1.36 0 0 Z " fill="#FBFBFC" transform="translate(269,114)"/>
<path d="M0 0 C1.01973129 3.05919388 1.11533602 5.12418025 1.09765625 8.32421875 C1.09443359 9.35224609 1.09121094 10.38027344 1.08789062 11.43945312 C1.07951172 12.51130859 1.07113281 13.58316406 1.0625 14.6875 C1.05798828 15.77095703 1.05347656 16.85441406 1.04882812 17.97070312 C1.03703743 20.64719085 1.02058063 23.32356777 1 26 C2.69769531 25.98259766 2.69769531 25.98259766 4.4296875 25.96484375 C5.91145669 25.95546546 7.39322765 25.9463653 8.875 25.9375 C9.62136719 25.92912109 10.36773438 25.92074219 11.13671875 25.91210938 C16.7734375 25.88671875 16.7734375 25.88671875 19 27 C20.29411765 34.41176471 20.29411765 34.41176471 19 37 C13.06 37 7.12 37 1 37 C0.97522058 43.85017638 0.95710232 50.70032646 0.94506836 57.55053711 C0.94004978 59.87931778 0.9332335 62.20809531 0.92456055 64.53686523 C0.91238645 67.89047013 0.90674682 71.24403324 0.90234375 74.59765625 C0.89718246 75.63334244 0.89202118 76.66902863 0.88670349 77.73609924 C0.88621681 84.05378733 0.98516199 89.95548597 3 96 C6.54377754 97.50524531 10.46706136 97.09752721 14.25 97.0625 C15.51328125 97.05347656 16.7765625 97.04445313 18.078125 97.03515625 C19.52445313 97.01775391 19.52445313 97.01775391 21 97 C21.02689216 98.47906892 21.04634621 99.95827483 21.0625 101.4375 C21.07410156 102.26121094 21.08570313 103.08492188 21.09765625 103.93359375 C21 106 21 106 20 107 C17.13090273 107.18211752 14.30898906 107.2783968 11.4375 107.3125 C10.25704102 107.35600586 10.25704102 107.35600586 9.05273438 107.40039062 C3.26774879 107.46238965 -1.21700072 106.35881612 -6 103 C-9.59598752 98.48196439 -11.09789312 94.89680727 -11.22119141 89.18066406 C-11.24436432 88.2024469 -11.26753723 87.22422974 -11.29141235 86.21636963 C-11.32118668 84.63200104 -11.32118668 84.63200104 -11.3515625 83.015625 C-11.37471527 81.92666931 -11.39786804 80.83771362 -11.42172241 79.71575928 C-11.46937103 77.40918635 -11.51460397 75.10256246 -11.55761719 72.79589844 C-11.62447191 69.27778965 -11.70235217 65.76004433 -11.78125 62.2421875 C-11.82619126 60.00001334 -11.87048309 57.75782605 -11.9140625 55.515625 C-11.93796051 54.4674762 -11.96185852 53.41932739 -11.98648071 52.3394165 C-12.07578837 47.09367139 -11.93897764 42.16573788 -11 37 C-11.84304688 37.03480469 -12.68609375 37.06960937 -13.5546875 37.10546875 C-14.65039062 37.13253906 -15.74609375 37.15960938 -16.875 37.1875 C-18.51082031 37.23970703 -18.51082031 37.23970703 -20.1796875 37.29296875 C-21.11039063 37.19628906 -22.04109375 37.09960938 -23 37 C-25.56687367 33.1496895 -24.83288724 31.41430237 -24 27 C-20 26 -20 26 -11 27 C-11 18.75 -11 10.5 -11 2 C-6.78370866 -0.10814567 -4.60209225 -0.17700355 0 0 Z " fill="#F9FAFB" transform="translate(777,77)"/>
<path d="M0 0 C0.67353334 3.43502001 1.10292519 6.33833805 0.5625 9.8125 C-1.5003264 12.70045696 -3.5491818 12.81973531 -6.9140625 13.5 C-13.19235851 15.0049099 -16.27354647 19.37566221 -19.60546875 24.48828125 C-23.5593921 31.60977345 -24.45950556 36.85953808 -24.51171875 44.96484375 C-24.52966995 45.99815323 -24.54762115 47.03146271 -24.56611633 48.09608459 C-24.62003226 51.37651565 -24.65405541 54.65680275 -24.6875 57.9375 C-24.72068954 60.16994182 -24.75518071 62.4023647 -24.79101562 64.63476562 C-24.87574783 70.08971461 -24.94417654 75.54468267 -25 81 C-33.25 81.05769231 -33.25 81.05769231 -36 80 C-37.41191572 77.17616855 -37.12726428 74.81574366 -37.12939453 71.65771484 C-37.13114685 71.00703033 -37.13289917 70.35634583 -37.13470459 69.6859436 C-37.13911693 67.52758134 -37.13618525 65.36930065 -37.1328125 63.2109375 C-37.13348621 61.70838404 -37.13445679 60.20583068 -37.13571167 58.70327759 C-37.1371882 55.5474545 -37.13503732 52.39165966 -37.13037109 49.23583984 C-37.12470318 45.20777799 -37.12793432 41.1797832 -37.13394356 37.15172386 C-37.13757552 34.04431666 -37.13639802 30.93692506 -37.13381577 27.82951736 C-37.13315224 26.34568906 -37.13395468 24.8618593 -37.13629532 23.37803268 C-37.15385779 9.10075149 -37.15385779 9.10075149 -36 2 C-31.99799622 0.39919849 -28.95443764 1.70720308 -25 3 C-24.67 6.96 -24.34 10.92 -24 15 C-23.14728516 13.98679687 -23.14728516 13.98679687 -22.27734375 12.953125 C-15.7743102 5.4404385 -10.36744952 0 0 0 Z " fill="#F8F9FA" transform="translate(853,102)"/>
<path d="M0 0 C3.40654184 2.14760246 5.77828524 4.11272577 7 8 C7.45778685 13.03565533 7.0454675 15.93937667 4 20 C1.21875739 23.24478304 -1.01794805 23.90735359 -5.3125 24.3125 C-9.75886282 23.93568959 -11.63948122 22.90226622 -15 20 C-17.64201025 15.94891762 -18.70236884 12.8162435 -18 8 C-14.05836694 0.26833515 -8.22824376 -2.51088676 0 0 Z " fill="#FAFBFC" transform="translate(294,81)"/>
<path d="M0 0 C1.89551022 -0.05441656 3.7914792 -0.09298035 5.6875 -0.125 C6.74324219 -0.14820313 7.79898438 -0.17140625 8.88671875 -0.1953125 C12.02251859 0.00141271 14.17645373 0.66942346 17 2 C17.02692484 4.29160319 17.04636124 6.58329546 17.0625 8.875 C17.07410156 10.15117187 17.08570313 11.42734375 17.09765625 12.7421875 C17 16 17 16 16 18 C11.05 18 6.1 18 1 18 C-0.2062252 14.38132441 -0.10816918 11.07493749 -0.0625 7.3125 C-0.05798828 6.61060547 -0.05347656 5.90871094 -0.04882812 5.18554688 C-0.03706927 3.45699462 -0.01913454 1.72848635 0 0 Z " fill="#EF0607" transform="translate(956,164)"/>
<path d="M0 0 C1.89551022 -0.05441656 3.7914792 -0.09298035 5.6875 -0.125 C6.74324219 -0.14820313 7.79898438 -0.17140625 8.88671875 -0.1953125 C12 0 12 0 17 2 C17 6.62 17 11.24 17 16 C16.67 16 16.34 16 16 16 C16 11.71 16 7.42 16 3 C11.38 3 6.76 3 2 3 C2 7.62 2 12.24 2 17 C6.62 17 11.24 17 16 17 C16 17.33 16 17.66 16 18 C11.05 18 6.1 18 1 18 C-0.2062252 14.38132441 -0.10816918 11.07493749 -0.0625 7.3125 C-0.05798828 6.61060547 -0.05347656 5.90871094 -0.04882812 5.18554688 C-0.03706927 3.45699462 -0.01913454 1.72848635 0 0 Z " fill="#DC9098" transform="translate(956,164)"/>
<path d="M0 0 C2.02408755 0.09002398 4.04544287 0.24641038 6.0625 0.4375 C7.71958984 0.59025391 7.71958984 0.59025391 9.41015625 0.74609375 C10.26480469 0.82988281 11.11945312 0.91367188 12 1 C12 1.33 12 1.66 12 2 C11.37351562 2.04898438 10.74703125 2.09796875 10.1015625 2.1484375 C9.28429687 2.22320312 8.46703125 2.29796875 7.625 2.375 C6.81289063 2.44460937 6.00078125 2.51421875 5.1640625 2.5859375 C2.79665809 2.82892588 2.79665809 2.82892588 1 5 C0.35232207 7.57061311 0.35232207 7.57061311 0 10 C-0.66 9.34 -1.32 8.68 -2 8 C-1.42307692 1.42307692 -1.42307692 1.42307692 0 0 Z " fill="#E8EBF0" transform="translate(754,103)"/>
</svg>
